<svg width="228" height="48" viewBox="0 0 228 48" fill="none" xmlns="http://www.w3.org/2000/svg">
<g clip-path="url(#clip0_2466_3743)">
<path d="M1.66284 9.37207H6.31201V34.8916L23.4155 9.37207H29.9651V41H25.282V14.3267L7.43188 41H1.66284V9.37207ZM60.955 41H56.2719V26.8149H37.302V41H32.6528V9.37207H37.302V22.8445H56.2719V9.37207H60.955V41ZM95.8123 25.2878C95.8123 27.7538 95.4164 29.9936 94.6245 32.0071C93.8553 34.0206 92.7354 35.7513 91.2649 37.1992C89.817 38.6245 88.075 39.7444 86.0388 40.5588C84.0027 41.3733 81.729 41.7805 79.2178 41.7805C76.7518 41.7805 74.5007 41.3733 72.4646 40.5588C70.4285 39.7444 68.6751 38.6245 67.2046 37.1992C65.7567 35.7513 64.6368 34.0206 63.845 32.0071C63.0758 29.9936 62.6912 27.7538 62.6912 25.2878C62.6912 22.8897 63.0758 20.6613 63.845 18.6025C64.6368 16.5212 65.7567 14.7565 67.2046 13.3086C68.6751 11.8381 70.4285 10.6956 72.4646 9.8811C74.5007 9.04403 76.7518 8.62549 79.2178 8.62549C81.729 8.62549 84.0027 9.04403 86.0388 9.8811C88.075 10.6956 89.817 11.8381 91.2649 13.3086C92.7354 14.7565 93.8553 16.5212 94.6245 18.6025C95.4164 20.6613 95.8123 22.8897 95.8123 25.2878ZM91.1631 25.2878C91.1631 23.4779 90.8916 21.8151 90.3486 20.2993C89.8283 18.7609 89.0478 17.4148 88.0071 16.261C86.9664 15.1072 85.6995 14.2022 84.2063 13.5461C82.7358 12.8901 81.0729 12.562 79.2178 12.562C77.3626 12.562 75.6885 12.8901 74.1953 13.5461C72.7248 14.2022 71.4805 15.1072 70.4624 16.261C69.4443 17.4148 68.6638 18.7609 68.1209 20.2993C67.6005 21.8151 67.3403 23.4779 67.3403 25.2878C67.3403 27.0977 67.6005 28.7719 68.1209 30.3103C68.6638 31.8261 69.4443 33.1383 70.4624 34.2468C71.4805 35.3554 72.7248 36.2264 74.1953 36.8599C75.6885 37.4933 77.3626 37.8101 79.2178 37.8101C81.0729 37.8101 82.7358 37.4933 84.2063 36.8599C85.6995 36.2264 86.9664 35.3554 88.0071 34.2468C89.0478 33.1383 89.8283 31.8261 90.3486 30.3103C90.8916 28.7719 91.1631 27.0977 91.1631 25.2878ZM128.97 35.0273C127.635 37.1087 125.803 38.7603 123.472 39.9819C121.165 41.181 118.416 41.7805 115.226 41.7805C112.76 41.7805 110.498 41.3733 108.439 40.5588C106.38 39.7444 104.616 38.6132 103.145 37.1653C101.697 35.6947 100.566 33.9527 99.7515 31.9392C98.937 29.9257 98.5298 27.686 98.5298 25.22C98.5298 22.8219 98.9031 20.6047 99.6497 18.5686C100.396 16.5098 101.46 14.7565 102.84 13.3086C104.22 11.8381 105.905 10.6956 107.896 9.8811C109.91 9.04403 112.138 8.62549 114.581 8.62549C115.554 8.62549 116.55 8.73861 117.568 8.96484C118.586 9.19108 119.547 9.54175 120.452 10.0168C121.357 10.4693 122.172 11.0236 122.896 11.6797C123.62 12.3132 124.162 13.071 124.524 13.9534V9.37207H128.699V22.03H124.524C124.524 20.6274 124.264 19.3491 123.744 18.1953C123.246 17.0415 122.556 16.0461 121.674 15.209C120.792 14.3719 119.74 13.7271 118.518 13.2747C117.296 12.7996 115.984 12.562 114.581 12.562C112.681 12.562 111.018 12.8901 109.593 13.5461C108.19 14.2022 107.014 15.0959 106.064 16.2271C105.113 17.3582 104.389 18.693 103.892 20.2314C103.417 21.7472 103.179 23.4101 103.179 25.22C103.179 27.0299 103.45 28.704 103.993 30.2424C104.559 31.7582 105.362 33.0704 106.403 34.179C107.466 35.2875 108.733 36.1698 110.204 36.8259C111.697 37.482 113.371 37.8101 115.226 37.8101C117.579 37.8101 119.672 37.3576 121.504 36.4526C123.337 35.5477 124.739 34.326 125.712 32.7876L128.97 35.0273ZM161.08 41H154.462L141.533 26.8149L135.832 32.041V41H131.183V9.37207H135.832V26.4077L153.852 9.37207H160.503L144.655 23.8965L161.08 41ZM192.952 25.2878C192.952 27.7538 192.556 29.9936 191.764 32.0071C190.995 34.0206 189.875 35.7513 188.405 37.1992C186.957 38.6245 185.215 39.7444 183.179 40.5588C181.143 41.3733 178.869 41.7805 176.358 41.7805C173.892 41.7805 171.641 41.3733 169.604 40.5588C167.568 39.7444 165.815 38.6245 164.344 37.1992C162.897 35.7513 161.777 34.0206 160.985 32.0071C160.216 29.9936 159.831 27.7538 159.831 25.2878C159.831 22.8897 160.216 20.6613 160.985 18.6025C161.777 16.5212 162.897 14.7565 164.344 13.3086C165.815 11.8381 167.568 10.6956 169.604 9.8811C171.641 9.04403 173.892 8.62549 176.358 8.62549C178.869 8.62549 181.143 9.04403 183.179 9.8811C185.215 10.6956 186.957 11.8381 188.405 13.3086C189.875 14.7565 190.995 16.5212 191.764 18.6025C192.556 20.6613 192.952 22.8897 192.952 25.2878ZM188.303 25.2878C188.303 23.4779 188.031 21.8151 187.488 20.2993C186.968 18.7609 186.188 17.4148 185.147 16.261C184.106 15.1072 182.839 14.2022 181.346 13.5461C179.876 12.8901 178.213 12.562 176.358 12.562C174.502 12.562 172.828 12.8901 171.335 13.5461C169.865 14.2022 168.62 15.1072 167.602 16.261C166.584 17.4148 165.804 18.7609 165.261 20.2993C164.74 21.8151 164.48 23.4779 164.48 25.2878C164.48 27.0977 164.74 28.7719 165.261 30.3103C165.804 31.8261 166.584 33.1383 167.602 34.2468C168.62 35.3554 169.865 36.2264 171.335 36.8599C172.828 37.4933 174.502 37.8101 176.358 37.8101C178.213 37.8101 179.876 37.4933 181.346 36.8599C182.839 36.2264 184.106 35.3554 185.147 34.2468C186.188 33.1383 186.968 31.8261 187.488 30.3103C188.031 28.7719 188.303 27.0977 188.303 25.2878ZM224.245 41H219.562V13.3425H200.592V41H195.942V9.37207H224.245V41Z" fill="white"/>
</g>
<defs>
<clipPath id="clip0_2466_3743">
<rect width="228" height="48" fill="white"/>
</clipPath>
</defs>
</svg>
