<svg width="194" height="40" viewBox="0 0 194 40" fill="none" xmlns="http://www.w3.org/2000/svg">
  <g clip-path="url(#clip0_1541_2050)">
    <path d="M69.3915 22.2199C69.3915 22.5018 69.3719 22.8495 69.3327 23.2629H57.0315C57.1884 24.4092 57.6789 25.33 58.5029 26.0253C59.3269 26.7018 60.3765 27.0401 61.6518 27.0401C62.515 27.0401 63.29 26.8803 63.9766 26.5609C64.6829 26.2414 65.2225 25.8092 65.5952 25.2642L68.7735 25.7716C68.2242 27.1246 67.2727 28.1676 65.9189 28.9005C64.5848 29.6334 63.0938 29.9998 61.4458 29.9998C59.9155 29.9998 58.5421 29.6803 57.3257 29.0414C56.129 28.3837 55.1873 27.4817 54.5006 26.3354C53.8335 25.1703 53.5 23.8548 53.5 22.3891C53.5 20.9233 53.8335 19.6172 54.5006 18.4709C55.1873 17.3058 56.129 16.4038 57.3257 15.7649C58.5421 15.1072 59.9155 14.7783 61.4458 14.7783C62.9761 14.7783 64.3396 15.1072 65.5364 15.7649C66.7528 16.4038 67.6945 17.2964 68.3615 18.4428C69.0482 19.5703 69.3915 20.8293 69.3915 22.2199ZM61.4458 17.5971C60.4256 17.5971 59.5329 17.879 58.7678 18.4428C58.0222 19.0065 57.5121 19.7676 57.2375 20.726H65.7129C65.4187 19.7864 64.8889 19.0347 64.1238 18.4709C63.3783 17.8884 62.4856 17.5971 61.4458 17.5971Z" fill="white" />
    <path d="M78.6207 30.0001C77.1885 30.0001 75.9034 29.6806 74.7655 29.0417C73.6276 28.384 72.7349 27.482 72.0875 26.3357C71.4597 25.1706 71.1458 23.8551 71.1458 22.3894C71.1458 20.9236 71.4597 19.6175 72.0875 18.4712C72.7349 17.3061 73.6276 16.4041 74.7655 15.7652C75.9034 15.1075 77.1885 14.7786 78.6207 14.7786C79.8567 14.7786 80.9554 15.0229 81.9167 15.5115C82.878 15.9813 83.6628 16.5733 84.271 17.2873V9.8457H87.6553V29.7182H85.1244L84.4182 27.3504C83.7903 28.0833 82.9859 28.7129 82.005 29.239C81.024 29.7464 79.8959 30.0001 78.6207 30.0001ZM79.4447 27.0967C80.8769 27.0967 82.0344 26.6645 82.9173 25.8001C83.8198 24.9169 84.271 23.78 84.271 22.3894C84.271 20.9988 83.8198 19.8712 82.9173 19.0068C82.0344 18.1236 80.8769 17.682 79.4447 17.682C78.0321 17.682 76.8844 18.1236 76.0015 19.0068C75.1187 19.8712 74.6772 20.9988 74.6772 22.3894C74.6772 23.78 75.1187 24.9169 76.0015 25.8001C76.8844 26.6645 78.0321 27.0967 79.4447 27.0967Z" fill="white" />
    <path d="M97.22 30.0001C96.141 30.0001 95.16 29.737 94.2771 29.2108C93.4139 28.6847 92.7272 27.9612 92.2171 27.0404C91.7267 26.1196 91.4814 25.0766 91.4814 23.9115V15.0605H94.8657V23.5451C94.8657 24.5974 95.1698 25.4524 95.778 26.1102C96.4058 26.7679 97.2004 27.0967 98.1617 27.0967C99.1427 27.0967 99.9569 26.7679 100.604 26.1102C101.252 25.4337 101.576 24.5786 101.576 23.5451V15.0605H104.96V29.7182H102.429L101.752 27.5196C101.262 28.29 100.614 28.9008 99.8098 29.3518C99.0054 29.784 98.1421 30.0001 97.22 30.0001Z" fill="white" />
    <path d="M115.878 29.9998C114.348 29.9998 112.975 29.6803 111.758 29.0414C110.542 28.3837 109.59 27.4817 108.904 26.3354C108.237 25.1703 107.903 23.8548 107.903 22.3891C107.903 20.9233 108.237 19.6172 108.904 18.4709C109.59 17.3058 110.542 16.4038 111.758 15.7649C112.975 15.1072 114.348 14.7783 115.878 14.7783C117.565 14.7783 119.057 15.1823 120.351 15.9904C121.666 16.7797 122.598 17.9072 123.147 19.373L119.969 19.8803C119.635 19.2414 119.115 18.7246 118.409 18.33C117.722 17.9354 116.947 17.7381 116.084 17.7381C114.711 17.7381 113.593 18.1703 112.729 19.0347C111.866 19.8991 111.434 21.0172 111.434 22.3891C111.434 23.7609 111.866 24.879 112.729 25.7434C113.593 26.6079 114.711 27.0401 116.084 27.0401C116.987 27.0401 117.791 26.8428 118.497 26.4481C119.204 26.0347 119.733 25.4991 120.087 24.8414L123.265 25.3488C122.715 26.8334 121.764 27.9797 120.41 28.7877C119.057 29.5958 117.546 29.9998 115.878 29.9998Z" fill="white" />
    <path d="M131.866 14.7783C133.828 14.7783 135.368 15.3703 136.486 16.5542C137.624 17.7193 138.193 19.3636 138.193 21.487V29.7179H135.692L134.985 27.4065C134.554 28.1018 133.916 28.7126 133.072 29.2387C132.229 29.7461 131.228 29.9998 130.071 29.9998C129.05 29.9998 128.128 29.8025 127.304 29.4079C126.5 29.0132 125.872 28.4589 125.421 27.7448C124.97 27.0307 124.744 26.2226 124.744 25.3206C124.744 23.93 125.313 22.8213 126.451 21.9944C127.608 21.1488 129.286 20.726 131.483 20.726H134.779C134.701 19.7488 134.387 18.9783 133.838 18.4146C133.308 17.832 132.592 17.5407 131.689 17.5407C130.963 17.5407 130.336 17.7099 129.806 18.0481C129.276 18.3864 128.884 18.7998 128.629 19.2884L125.509 18.781C125.882 17.5407 126.647 16.5636 127.805 15.8495C128.982 15.1354 130.336 14.7783 131.866 14.7783ZM130.865 27.2656C132.042 27.2656 132.994 26.8991 133.72 26.1662C134.446 25.4334 134.809 24.4656 134.809 23.2629H131.601C129.306 23.2629 128.158 23.9018 128.158 25.1797C128.158 25.8186 128.403 26.326 128.894 26.7018C129.384 27.0777 130.041 27.2656 130.865 27.2656Z" fill="white" />
    <path d="M150.987 26.8991L150.693 29.7179H147.839C146.171 29.7179 144.905 29.3421 144.042 28.5904C143.179 27.8199 142.747 26.7112 142.747 25.2642V17.879H140.246V15.0602H142.747L143.601 10.832H146.132V15.0602H150.693V17.879H146.132V25.2642C146.132 26.3542 146.701 26.8991 147.839 26.8991H150.987Z" fill="white" />
    <path d="M157.179 29.7181H153.795V15.0604H157.179V29.7181ZM155.502 12.9745C154.874 12.9745 154.364 12.796 153.971 12.4389C153.579 12.0631 153.383 11.5839 153.383 11.0013C153.383 10.4188 153.579 9.9396 153.971 9.56376C154.383 9.18792 154.893 9 155.502 9C156.11 9 156.61 9.18792 157.002 9.56376C157.395 9.9396 157.591 10.4188 157.591 11.0013C157.591 11.5839 157.395 12.0631 157.002 12.4389C156.61 12.796 156.11 12.9745 155.502 12.9745Z" fill="white" />
    <path d="M168.447 29.9998C166.877 29.9998 165.465 29.6803 164.209 29.0414C162.973 28.3837 162.002 27.4817 161.296 26.3354C160.609 25.1703 160.266 23.8548 160.266 22.3891C160.266 20.9233 160.609 19.6172 161.296 18.4709C162.002 17.3058 162.973 16.4038 164.209 15.7649C165.465 15.1072 166.877 14.7783 168.447 14.7783C170.016 14.7783 171.419 15.1072 172.655 15.7649C173.911 16.4038 174.882 17.3058 175.569 18.4709C176.275 19.6172 176.628 20.9233 176.628 22.3891C176.628 23.8548 176.275 25.1703 175.569 26.3354C174.882 27.4817 173.911 28.3837 172.655 29.0414C171.419 29.6803 170.016 29.9998 168.447 29.9998ZM168.447 27.0401C169.82 27.0401 170.938 26.6172 171.802 25.7716C172.665 24.9072 173.096 23.7797 173.096 22.3891C173.096 20.9985 172.665 19.8803 171.802 19.0347C170.938 18.1703 169.82 17.7381 168.447 17.7381C167.073 17.7381 165.955 18.1703 165.092 19.0347C164.229 19.8803 163.797 20.9985 163.797 22.3891C163.797 23.7797 164.229 24.9072 165.092 25.7716C165.955 26.6172 167.073 27.0401 168.447 27.0401Z" fill="white" />
    <path d="M179.57 29.7179V15.0602H182.101L182.778 17.2589C183.268 16.4884 183.916 15.887 184.72 15.4548C185.544 15.0038 186.427 14.7783 187.369 14.7783C188.467 14.7783 189.458 15.0414 190.341 15.5676C191.224 16.0938 191.92 16.8172 192.431 17.7381C192.941 18.6589 193.196 19.7018 193.196 20.8669V29.7179H189.811V21.2334C189.811 20.181 189.497 19.326 188.87 18.6683C188.242 18.0105 187.437 17.6817 186.456 17.6817C185.436 17.6817 184.593 18.0199 183.926 18.6964C183.278 19.3542 182.954 20.1998 182.954 21.2334V29.7179H179.57Z" fill="white" />
    <path d="M19.668 40C10.66 40 6.132 40 3.332 37.216C0.5 34.416 0.5 29.888 0.5 20.848V19.184C0.5 10.144 0.5 5.616 3.332 2.816C6.132 0 10.66 0 19.668 0H21.332C30.372 0 34.868 0 37.7 2.816C40.5 5.632 40.5 10.144 40.5 19.184V20.848C40.5 29.888 40.5 34.416 37.7 37.216C34.868 40 30.372 40 21.332 40H19.668Z" fill="#0077FF" />
    <path d="M22.468 28.8478V22.8958C25.748 23.2318 28.196 25.6798 29.204 28.8478H33.94C32.66 24.1118 29.332 21.4878 27.252 20.4958C29.316 19.2638 32.244 16.2558 32.932 12.1918H28.628C27.732 15.5038 25.044 18.4958 22.468 18.7838V12.1758H18.1V23.7118C15.444 23.0398 11.972 19.8078 11.812 12.1758H7.25195C7.45995 22.5758 12.932 28.8318 21.956 28.8318L22.468 28.8478Z" fill="white" />
  </g>
  <defs>
    <clipPath id="clip0_1541_2050">
      <rect width="193" height="40" fill="white" transform="translate(0.5)" />
    </clipPath>
  </defs>
</svg>
